{
  "accessors": [
    {
      "bufferView": 2,
      "componentType": 5126,
      "count": 1407,
      "max": [
        4.1700592041015625,
        8.7350740432739258,
        2.9313795566558838
      ],
      "min": [
        -0.28548762202262878,
        -0.41797301173210144,
        -1.7392480373382568
      ],
      "type": "VEC3"
    },
    {
      "bufferView": 2,
      "byteOffset": 16884,
      "componentType": 5126,
      "count": 1407,
      "max": [
        0.99786370992660522,
        0.99978554248809814,
        0.99970465898513794
      ],
      "min": [
        -0.99958682060241699,
        -0.99872547388076782,
        -0.99984478950500488
      ],
      "type": "VEC3"
    },
    {
      "bufferView": 3,
      "componentType": 5126,
      "count": 1407,
      "max": [
        0.99904501438140869,
        0.99415343999862671,
        0.99975079298019409,
        1
      ],
      "min": [
        -0.99961566925048828,
        -0.99928146600723267,
        -0.99939233064651489,
        -1
      ],
      "type": "VEC4"
    },
    {
      "bufferView": 1,
      "componentType": 5126,
      "count": 1407,
      "max": [
        0.9907073974609375,
        0.98257064819335938
      ],
      "min": [
        0.016292572021484375,
        0.01421356201171875
      ],
      "type": "VEC2"
    },
    {
      "bufferView": 0,
      "componentType": 5125,
      "count": 6015,
      "max": [
        1406
      ],
      "min": [
        0
      ],
      "type": "SCALAR"
    }
  ],
  "asset": {
    "extras": {
      "author": "robnewman76 (https://sketchfab.com/robnewman76)",
      "license": "CC-BY-4.0 (http://creativecommons.org/licenses/by/4.0/)",
      "source": "https://sketchfab.com/models/77470eee45584292887a6f1c4c790228",
      "title": "Human Heart - Textured Game Prop"
    },
    "generator": "Sketchfab-3.45.3",
    "version": "2.0"
  },
  "bufferViews": [
    {
      "buffer": 0,
      "byteLength": 24060,
      "byteOffset": 0,
      "name": "floatBufferViews",
      "target": 34963
    },
    {
      "buffer": 0,
      "byteLength": 11256,
      "byteOffset": 24060,
      "byteStride": 8,
      "name": "floatBufferViews",
      "target": 34962
    },
    {
      "buffer": 0,
      "byteLength": 33768,
      "byteOffset": 35316,
      "byteStride": 12,
      "name": "floatBufferViews",
      "target": 34962
    },
    {
      "buffer": 0,
      "byteLength": 22512,
      "byteOffset": 69084,
      "byteStride": 16,
      "name": "floatBufferViews",
      "target": 34962
    }
  ],
  "buffers": [
    {
      "byteLength": 91596,
      "uri": "scene.bin"
    }
  ],
  "images": [
    {
      "uri": "textures/hr_arteries_0004lambert1_metallicRoughness.png"
    },
    {
      "uri": "textures/hr_arteries_0004lambert1_normal.jpeg"
    },
    {
      "uri": "textures/hr_arteries_0004lambert1_baseColor.jpeg"
    }
  ],
  "materials": [
    {
      "doubleSided": true,
      "emissiveFactor": [
        0,
        0,
        0
      ],
      "name": "hr_arteries_0004lambert1",
      "normalTexture": {
        "index": 1,
        "scale": 1,
        "texCoord": 0
      },
      "occlusionTexture": {
        "index": 0,
        "strength": 1,
        "texCoord": 0
      },
      "pbrMetallicRoughness": {
        "baseColorFactor": [
          1,
          1,
          1,
          1
        ],
        "baseColorTexture": {
          "index": 2,
          "texCoord": 0
        },
        "metallicFactor": 1,
        "metallicRoughnessTexture": {
          "index": 0,
          "texCoord": 0
        },
        "roughnessFactor": 1
      }
    }
  ],
  "meshes": [
    {
      "name": "hr_arteries_0004:polySurface2_hr_arteries_0004:lambert1_0",
      "primitives": [
        {
          "attributes": {
            "NORMAL": 1,
            "POSITION": 0,
            "TANGENT": 2,
            "TEXCOORD_0": 3
          },
          "indices": 4,
          "material": 0,
          "mode": 4
        }
      ]
    }
  ],
  "nodes": [
    {
      "children": [
        1
      ],
      "name": "RootNode (gltf orientation matrix)",
      "rotation": [
        -0.70710678118654746,
        -0,
        -0,
        0.70710678118654757
      ]
    },
    {
      "children": [
        2
      ],
      "name": "RootNode (model correction matrix)"
    },
    {
      "children": [
        3
      ],
      "matrix": [
        1,
        0,
        0,
        0,
        0,
        0,
        1,
        0,
        0,
        -1,
        0,
        0,
        0,
        0,
        0,
        1
      ],
      "name": "d1cea0d6437941ee90f4b57cab84d40a.fbx"
    },
    {
      "children": [
        4
      ],
      "name": "RootNode"
    },
    {
      "children": [
        5
      ],
      "name": "hr_arteries_0004:polySurface2"
    },
    {
      "mesh": 0,
      "name": "hr_arteries_0004:polySurface2_hr_arteries_0004:lambert1_0"
    }
  ],
  "samplers": [
    {
      "magFilter": 9729,
      "minFilter": 9987,
      "wrapS": 10497,
      "wrapT": 10497
    }
  ],
  "scene": 0,
  "scenes": [
    {
      "name": "OSG_Scene",
      "nodes": [
        0
      ]
    }
  ],
  "textures": [
    {
      "sampler": 0,
      "source": 0
    },
    {
      "sampler": 0,
      "source": 1
    },
    {
      "sampler": 0,
      "source": 2
    }
  ]
}

